<svg viewBox="0 0 12 58" width="12" height="58" fill="none" xmlns="http://www.w3.org/2000/svg">
<rect width="12" height="58" fill="none"/>
<path d="M-134.056 0.638938L-134.24 3.16739C-140.424 3.33316 -136.277 0.323911 -141.921 1.05147C-143.875 4.66387 -151.34 0.82429 -153.132 2.72537C-153.106 2.44597 -155.864 2.36214 -155.759 1.24454C-156.48 3.19374 -158.546 1.7041 -160.229 2.20613C-160.818 2.7496 -159.734 2.78128 -159.241 3.36517L-163.159 4.06166C-164.724 3.42966 -165.154 2.288 -163.5 2.09156C-168.66 1.74615 -206.188 4.34041 -220.5 3.16739C-227.703 2.6117 -281.65 0.845943 -287.609 0.248986C-293.601 -0.351048 -298.669 -0.846433 -301.461 -0.924606C-300.208 0.690981 -296.736 0.0756948 -295.734 2.48688C-298.746 3.46263 -299.919 1.58151 -301.371 2.78353C-302.051 -0.716004 -307.712 1.23443 -309.536 -2.46986L-310.652 -0.654662L-311.984 -2.00471C-318.753 -1.81472 -319.611 -1.67541 -320.18 -1.80835C-320.782 -1.94436 -321.04 -2.35622 -327.139 -3.32757C-334.319 -3.88994 -338.132 -1.63316 -342.114 -3.05678C-341.507 -2.97315 -340.022 -1.61748 -341.991 -1.33626C-342.114 -3.05678 -347.212 -0.683223 -347.987 -2.47402C-349.886 -2.46809 -356.111 -3.26634 -354.218 -0.762324C-355.141 -2.02974 -360.738 -2.9801 -357.3 -3.69553C-359.199 -3.9274 -361.019 -4.42481 -362.44 -4.02143L-360.039 -3.16972C-366.486 -3.36344 -370.049 -5.3906 -374.33 -3.52152L-371.972 -2.46231C-375.85 -2.53724 -379.035 -2.52034 -380.503 -4.87856L-376.535 -5.403C-382.943 -5.65476 -386.755 -5.62647 -391.917 -4.54512L-390.073 -4.4329C-393.387 -3.3888 -403.554 -8.55017 -413.205 -7.46919C-422.878 -6.39899 -432.142 -5.22868 -434.944 -3.80151L-432.249 -2.00586L-437.043 -0.519844C-436.463 -0.500412 -434.971 -6.31453 -434.455 -5.72859C-444.873 -5.60073 -499.067 -4.40232 -508.752 -5.64125C-512.686 -6.64629 -509.583 -8.47669 -509.556 -8.76482C-514.249 -8.11495 -511.512 -6.87911 -515.535 -7.04699C-516.646 -7.37193 -515.37 -8.44965 -514.764 -8.70088C-516.518 -8.49622 -518.183 -9.11998 -518.272 -8.28281C-516.04 -7.6319 -516.864 -5.41048 -515.869 -3.96897L-521.052 -4.17571L-520.887 -5.57836C-522.046 -5.62596 -523.629 -1.75836 -528.748 -2.5316C-537.349 -3.16618 -546.634 -2.71132 -555.273 -3.05879C-555.183 -3.89596 -553.391 -4.38774 -551.6 -4.87078C-552.759 -4.91838 -554.514 -4.70497 -555.598 -5.31804C-553.444 -3.82893 -559.169 -4.34221 -557.516 -3.71073C-563.666 -0.308806 -579.362 -2.8236 -584.826 -0.519843C-584.192 13.0174 -583.057 -2.4451 -586.734 55.3025C-588.472 55.2267 -590.189 55.1618 -590.731 54.8552C-590.242 55.7206 -586.824 56.1397 -585.044 55.6556L-584.826 53.6942C-580.701 53.0172 -583.794 54.8573 -579.744 54.7458C-579.456 56.3497 -583.175 56.6774 -586.46 56.8258C-583.494 57.0262 -580.487 58.1993 -579.356 56.4473C-576.544 57.1263 -579.574 58.4087 -576.193 59.1062C-573.822 58.6426 -570.766 57.0808 -567.97 58.0403L-567.996 58.3197C-561.26 59.9941 -557.913 55.9228 -551.736 57.5798L-552.368 58.1104C-550.173 59.0485 -545.984 57.8137 -542.051 58.8187C-543.172 58.4928 -544.193 57.3307 -541.86 57.1454C-537.346 58.1699 -534.344 57.1757 -531.016 58.4319L-527.949 56.8712C-512.374 57.2295 -451.023 55.217 -435.406 55.0154L-436.012 55.2667C-430.09 55.0938 -422.505 54.972 -414.307 54.8727C-406.132 54.7801 -397.422 54.7203 -388.989 54.8017C-384.766 54.8386 -380.613 54.913 -376.616 55.0166C-372.609 55.1214 -368.78 55.262 -364.965 55.4279C-357.378 55.7555 -350.17 56.1442 -344.213 56.2918C-340.785 58.2358 -335.65 58.4908 -331.774 59.4024C-333.873 58.4998 -332.977 57.5007 -331.28 57.7752C-325.309 58.5936 -325.002 58.367 -324.75 58.0208C-324.465 57.6777 -324.204 57.2354 -317.933 57.6593C-314.284 57.7301 -308.104 58.304 -300.426 59.063C-292.759 59.8209 -237.032 59.3553 -228 60.0746C-209.884 61.5357 -169.165 62.5444 -162.588 63.2173C-155.658 60.9637 -146.847 62.6311 -140.191 61.0739L-140.836 61.621C-137.224 61.151 -125.125 61.2345 -113.115 63.2214C-101.107 63.2171 -89.0971 63.2041 -85.0202 62.6899L-86.1562 62.3978C-79.1439 60.7862 -79.8755 63.307 -74.171 63.924C-75.1506 61.3916 -69.1694 59.7709 -66.851 59.5137L-66.882 60.0746C-63.3967 59.5487 -55.6259 57.11 -49.8378 56.6074L-49.9377 58.0162C-45.2283 56.3813 -36.0432 56.7538 -32.5734 56.5083C-24.5397 56.8693 -6.03962 58.966 4.45867 56.8197L9.67863 48.3708L9.67863 18.8608C9.67863 18.8608 11.5754 -2.07514 -1.79608 1.90563L-1.7079 0.504532L-4.47639 0.763272C-7.87803 0.169538 -9.27456 1.82608 -9.1755 0.426011L-4.58064 0.471563C-7.97515 0.151574 -5.70457 -0.6474 -4.4967 -1.46727C-5.91437 -1.56568 -7.28519 -1.6949 -8.44393 -2.09482C-9.05642 -1.53594 -7.90415 -1.53302 -7.34974 -1.24292C-9.11284 -0.704417 -11.5047 0.682123 -13.7549 0.100034C-17.2092 0.0650989 -14.1903 -2.15202 -18.2144 -2.19663C-39.4729 -2.69429 -60.119 -0.750831 -81.4765 0.151584C-82.0163 -0.410211 -81.4347 -0.408246 -80.8486 -0.687727C-87.2337 0.0933532 -92.9792 0.0274215 -98.7836 0.819203C-100.474 0.237032 -100.998 -0.605181 -101.537 -1.17571C-100.987 -0.612887 -109.084 -0.0637051 -117.295 0.289817C-121.395 0.46709 -125.512 0.589925 -128.646 0.655608C-131.769 0.713586 -133.898 0.706707 -134.033 0.632255L-134.056 0.638938Z" fill="#C6E000"/>
</svg>
