<svg width="639" height="77" viewBox="0 0 639 77" fill="none" xmlns="http://www.w3.org/2000/svg">
<path d="M387.302 9.12502L387.119 11.6535C380.934 11.8192 385.082 8.80999 379.437 9.53755C377.483 13.1499 370.018 9.31037 368.226 11.2114C368.252 10.932 365.494 10.8482 365.599 9.73062C364.878 11.6798 362.812 10.1902 361.129 10.6922C360.54 11.2357 361.624 11.2674 362.117 11.8512L358.199 12.5477C356.634 11.9157 356.204 10.7741 357.858 10.5776C352.698 10.2322 337.869 9.53024 323.557 8.35722C316.354 7.80154 309.35 7.11485 303.391 6.51789C297.399 5.91786 292.331 5.42247 289.539 5.3443C290.792 6.95989 294.264 6.3446 295.266 8.75578C292.254 9.73154 291.081 7.85042 289.629 9.05244C288.949 5.5529 283.288 7.50334 281.464 3.79904L280.349 5.61424L279.016 4.2642C272.247 4.45418 271.389 4.5935 270.82 4.46056C270.218 4.32454 269.96 3.91268 263.861 2.94133C256.681 2.37897 252.868 4.63574 248.886 3.21212C249.493 3.29574 250.978 4.65142 249.009 4.93264C248.886 3.21212 243.788 5.58567 243.013 3.79488C241.114 3.80081 234.889 3.00256 236.782 5.50658C235.859 4.23916 230.262 3.28879 233.7 2.57337C231.801 2.3415 229.981 1.84409 228.56 2.24746L230.961 3.09917C224.514 2.90546 220.951 0.878298 216.67 2.74738L219.029 3.8066C215.15 3.73167 211.965 3.74856 210.497 1.39034L214.465 0.865894C208.057 0.614139 204.245 0.642426 199.083 1.72378L200.927 1.836C197.613 2.88011 187.446 3.71875 177.795 4.79973C168.123 5.86993 158.858 7.04022 156.056 8.4674L158.752 10.263L153.957 11.7491C154.537 11.7685 156.029 5.95438 156.545 6.54032C146.127 6.66818 91.9329 7.86658 82.2477 6.62766C78.3141 5.62261 81.4173 3.79222 81.4445 3.50409C76.7511 4.15395 79.4885 5.38979 75.465 5.22192C74.3541 4.89697 75.6302 3.81926 76.2356 3.56802C74.482 3.77269 72.8175 3.14892 72.7276 3.98609C74.9604 4.63701 74.1363 6.85842 75.1309 8.29994L69.9476 8.0932L70.1127 6.69054C68.9537 6.64295 67.3707 10.5106 62.2517 9.73731C53.6511 9.10273 44.366 9.55759 35.7273 9.21012C35.8172 8.37294 37.6088 7.88116 39.3996 7.39812C38.2406 7.35053 36.4862 7.56394 35.4024 6.95086C37.5561 8.43997 31.8309 7.9267 33.4837 8.55818C27.3345 11.9601 11.6381 9.54749 6.17416 11.8512C6.80796 25.3885 7.94276 9.8238 4.26631 67.5714C2.52818 67.4956 0.810994 67.4307 0.269112 67.1241C0.758318 67.9895 4.17641 68.4086 5.95633 67.9245L6.17416 65.9631C10.2993 65.2861 7.20607 67.1262 11.2559 67.0147C11.5438 68.6186 7.82481 68.9463 4.53982 69.0947C7.50654 69.2951 10.5133 70.4682 11.6444 68.7162C14.4562 69.3952 11.4265 70.6776 14.8074 71.3751C17.1781 70.9115 20.2341 69.3497 23.0305 70.3092L23.0042 70.5886C29.7396 72.263 33.087 68.1917 39.2643 69.8487L38.6325 70.3794C40.8272 71.3174 45.0159 70.0826 48.9495 71.0876C47.8277 70.7617 46.8067 69.5996 49.1402 69.4143C53.6537 70.4388 56.6562 69.4446 59.9844 70.7008L63.0513 69.1401C78.6262 69.4984 139.977 67.4859 155.594 67.2843L154.988 67.5356C160.91 67.3627 168.495 67.2409 176.693 67.1416C184.868 67.049 193.578 66.9892 202.011 67.0706C206.234 67.1075 210.387 67.1819 214.384 67.2855C218.391 67.3903 222.22 67.5309 226.035 67.6968C233.622 68.0244 240.83 68.4131 246.787 68.5607C250.215 70.5047 255.35 70.7597 259.226 71.6713C257.127 70.7687 258.023 69.7696 259.72 70.0441C265.691 70.8625 265.998 70.6359 266.25 70.2897C266.535 69.9466 266.796 69.5043 273.067 69.9282C276.716 69.999 282.897 70.5729 290.574 71.3319C298.241 72.0898 307.509 72.9898 316.54 73.7091C334.656 75.1702 352.193 76.0305 358.77 76.7034C365.7 74.4497 374.511 76.1171 381.167 74.56L380.522 75.107C384.134 74.6371 396.233 74.7206 408.243 74.7075C420.251 74.7032 432.261 74.6902 436.338 74.176L435.202 73.8839C442.214 72.2723 545.946 73.8607 551.65 74.4777C550.671 71.9453 556.652 70.3245 558.97 70.0674L558.939 70.6283C562.425 70.1023 570.195 67.6637 575.983 67.1611L575.884 68.5699C580.593 66.9349 589.778 67.3075 593.248 67.062C601.282 67.4229 613.806 69.5196 624.304 67.3733L638.524 58.9245L635.5 29.4145C635.5 29.4145 637.397 8.47851 624.025 12.4593L624.113 11.0582L621.345 11.3169C617.943 10.7232 616.547 12.3797 616.646 10.9797L621.241 11.0252C617.846 10.7052 620.117 9.90625 621.325 9.08638C619.907 8.98798 618.536 8.85875 617.377 8.45883C616.765 9.01771 617.917 9.02063 618.472 9.31073C616.708 9.84923 614.317 11.2358 612.066 10.6537C608.612 10.6188 611.631 8.40163 607.607 8.35702C586.348 7.85936 461.239 7.73525 439.882 8.63766C439.342 8.07587 439.923 8.07783 440.509 7.79835C434.124 8.57943 428.379 8.5135 422.575 9.30528C420.884 8.72311 420.36 7.8809 419.821 7.31037C420.372 7.87319 412.274 8.42238 404.063 8.7759C399.963 8.95317 395.846 9.07601 392.712 9.14169C389.589 9.19967 387.46 9.19279 387.325 9.11834L387.302 9.12502Z" fill="#C6E000"/>
</svg>
