<svg width="199" height="75" viewBox="0 0 199 75" fill="none" xmlns="http://www.w3.org/2000/svg">
<path d="M165.704 9.41249L165.35 11.9223C161.503 12.0813 164.359 9.09776 160.793 9.81493C159.239 13.3992 154.981 9.58094 153.689 11.4665C153.732 11.1892 152.032 11.1035 152.203 9.99414C151.571 11.9285 150.433 10.4478 149.343 10.9447C148.926 11.4837 149.594 11.5161 149.845 12.0962L147.351 12.784C146.442 12.1552 146.284 11.0215 147.327 10.828C144.164 10.4805 165.046 9.77028 156.291 8.59294C151.883 8.03483 147.609 7.34685 143.975 6.74888C140.321 6.14784 137.228 5.65151 135.507 5.5714C136.129 7.17632 138.338 6.56865 138.729 8.96313C136.77 9.92905 136.223 8.0606 135.209 9.25255C135.121 5.77794 131.429 7.70905 130.651 4.03015L129.788 5.8311L129.091 4.48971C124.88 4.67222 124.335 4.80974 123.995 4.67726C123.635 4.5417 123.515 4.13261 119.83 3.16286C115.435 2.59814 112.858 4.835 110.527 3.41819C110.895 3.50176 111.687 4.84887 110.44 5.12627C110.527 3.41819 107.144 5.76984 106.834 3.99142C105.657 3.9956 101.877 3.19758 102.811 5.68502C102.36 4.42602 98.9841 3.47755 101.181 2.77044C100.027 2.53856 98.9477 2.04314 98.029 2.44229L99.4348 3.28995C95.4598 3.09185 93.4458 1.07627 90.6158 2.92786L91.9761 3.98147C89.5807 3.90359 87.6063 3.9175 86.9215 1.57517L89.4294 1.05813C85.4837 0.80244 83.12 0.827092 79.8194 1.89591L80.9513 2.00897C78.7987 3.04247 72.4213 3.86584 66.3399 4.93025C60.2465 5.98393 54.3962 7.13734 52.5247 8.55157L54.0235 10.3365L50.9123 11.8074C51.2697 11.8272 52.7476 6.05688 53.0111 6.639C46.5458 6.75656 52.8618 7.89743 46.9803 6.65883C44.6394 5.65759 46.736 3.84335 46.7803 3.55735C43.8111 4.19825 45.3891 5.42752 42.9128 5.25725C42.2556 4.93368 43.1486 3.86498 43.5476 3.61613C42.4419 3.81772 41.4702 3.197 41.3348 4.02799C42.6559 4.67616 41.9338 6.88061 42.4127 8.3125L39.2216 8.1026L39.4575 6.71034C38.7441 6.66205 37.3952 10.5 34.298 9.72778C29.0308 9.0901 33.236 9.53328 27.9179 9.18057C28.0534 8.34959 29.21 7.86301 30.3653 7.38511C29.6519 7.33682 28.5448 7.54709 27.9318 6.93751C29.1241 8.41769 25.6266 7.90301 26.5902 8.53137C22.4572 11.9029 12.9641 9.49379 9.36013 11.7758C8.46356 25.2148 10.6487 9.76484 2.87203 67.0876C1.80259 67.0108 0.745089 66.9448 0.438618 66.64C0.659244 67.4995 2.73662 67.9186 3.88527 67.4397L4.20699 65.4927C6.82672 64.8244 4.73543 66.6483 7.25469 66.5412C7.28027 68.1337 4.94537 68.4557 2.89639 68.6C4.71501 68.8016 6.46578 69.9689 7.33327 68.2307C9.01035 68.9073 7.01155 70.1776 9.03936 70.873C10.552 70.4149 12.5938 68.8673 14.2346 69.8223L14.1916 70.0997C18.2044 71.7679 20.6656 67.7294 24.3342 69.3798L23.8923 69.906C25.1625 70.8391 27.8747 69.6172 30.2156 70.6184C29.5518 70.2938 29.03 69.1392 30.4931 68.9575C33.1914 69.9785 35.1459 68.9942 37.0879 70.2443L39.1363 68.6978C38.7498 69.0674 36.9444 67.1248 46.6371 66.9388L46.2382 67.1877C49.9227 67.0214 54.6329 66.9073 59.7204 66.8161C64.7933 66.7315 70.1943 66.68 75.4104 66.7684C78.0225 66.8088 80.588 66.8864 83.0538 66.9929C85.5262 67.1005 87.8843 67.2436 90.2318 67.4116C94.9002 67.7437 99.3279 68.1361 103.004 68.2879C104.942 70.2208 108.099 70.4786 110.413 71.387C109.199 70.4891 109.849 69.4981 110.874 69.7722C114.495 70.5899 114.706 70.3653 114.896 70.0218C115.105 69.6815 115.309 69.2427 119.153 69.6691C121.406 69.7427 125.18 70.3179 129.864 71.0783C167.501 77.1889 102.273 65.2821 153.771 74.436C153.405 71.9212 157.265 70.3177 158.725 70.0645L158.653 70.6213C160.861 70.1023 165.907 67.6884 169.54 67.1947L169.344 68.5931C172.417 66.9744 178.071 67.3525 180.244 67.1119C185.186 67.4774 180.744 69.5701 187.452 67.4489L197.065 59.0745L198.002 29.7772C198.002 29.7772 201.17 8.99577 192.509 12.9354L192.697 11.5447L190.957 11.799C188.907 11.2066 187.884 12.8498 188.078 11.46L190.92 11.5094C188.848 11.1886 190.331 10.3975 191.157 9.58474C190.288 9.48578 189.451 9.35626 188.772 8.95822C188.339 9.51247 189.052 9.5164 189.368 9.80488C188.225 10.3379 186.611 11.7121 185.273 11.1323C183.136 11.0945 185.218 8.89627 182.729 8.84836C169.608 8.3352 171.636 8.09939 158.32 8.976C158.04 8.41782 158.4 8.42029 158.789 8.14338C154.76 8.91301 151.207 8.8424 147.536 9.62317C146.545 9.04373 146.3 8.20719 146.021 7.64035C146.308 8.19955 181.24 8.73745 176.12 9.081C173.564 9.25329 171.002 9.37152 169.054 9.4339C167.114 9.48865 165.796 9.4799 165.719 9.40587L165.704 9.41249Z" fill="#C6E000"/>
</svg>
